<svg width="44" height="16" viewBox="0 0 44 16" fill="none" xmlns="http://www.w3.org/2000/svg">
<path d="M12.6587 1.34131L14.6587 3.34131L13.134 4.86664L11.134 2.86664L12.6587 1.34131Z" fill="#8C8888"/>
<path d="M5.33325 10.6666H7.33325L12.1913 5.80859L10.1913 3.80859L5.33325 8.66659V10.6666Z" fill="#8C8888"/>
<path d="M12.6667 12.6667H5.43867C5.42133 12.6667 5.40333 12.6733 5.386 12.6733C5.364 12.6733 5.342 12.6673 5.31933 12.6667H3.33333V3.33333H7.898L9.23133 2H3.33333C2.598 2 2 2.59733 2 3.33333V12.6667C2 13.4027 2.598 14 3.33333 14H12.6667C13.0203 14 13.3594 13.8595 13.6095 13.6095C13.8595 13.3594 14 13.0203 14 12.6667V6.888L12.6667 8.22133V12.6667Z" fill="#8C8888"/>
<path d="M34.5 7V11C34.5 11.1326 34.5527 11.2598 34.6464 11.3536C34.7402 11.4473 34.8674 11.5 35 11.5C35.1326 11.5 35.2598 11.4473 35.3536 11.3536C35.4473 11.2598 35.5 11.1326 35.5 11V7C35.5 6.86739 35.4473 6.74021 35.3536 6.64645C35.2598 6.55268 35.1326 6.5 35 6.5C34.8674 6.5 34.7402 6.55268 34.6464 6.64645C34.5527 6.74021 34.5 6.86739 34.5 7Z" fill="#8C8888"/>
<path d="M37 6.5C37.1326 6.5 37.2598 6.55268 37.3536 6.64645C37.4473 6.74021 37.5 6.86739 37.5 7V11C37.5 11.1326 37.4473 11.2598 37.3536 11.3536C37.2598 11.4473 37.1326 11.5 37 11.5C36.8674 11.5 36.7402 11.4473 36.6464 11.3536C36.5527 11.2598 36.5 11.1326 36.5 11V7C36.5 6.86739 36.5527 6.74021 36.6464 6.64645C36.7402 6.55268 36.8674 6.5 37 6.5Z" fill="#8C8888"/>
<path d="M38 4H41C41.1326 4 41.2598 4.05268 41.3536 4.14645C41.4473 4.24021 41.5 4.36739 41.5 4.5C41.5 4.63261 41.4473 4.75979 41.3536 4.85355C41.2598 4.94732 41.1326 5 41 5H40.447L39.695 11.776C39.6271 12.3875 39.336 12.9525 38.8775 13.3629C38.419 13.7732 37.8253 14.0001 37.21 14H34.79C34.1747 14.0001 33.581 13.7732 33.1225 13.3629C32.664 12.9525 32.3729 12.3875 32.305 11.776L31.552 5H31C30.8674 5 30.7402 4.94732 30.6464 4.85355C30.5527 4.75979 30.5 4.63261 30.5 4.5C30.5 4.36739 30.5527 4.24021 30.6464 4.14645C30.7402 4.05268 30.8674 4 31 4H34C34 3.46957 34.2107 2.96086 34.5858 2.58579C34.9609 2.21071 35.4696 2 36 2C36.5304 2 37.0391 2.21071 37.4142 2.58579C37.7893 2.96086 38 3.46957 38 4ZM36 3C35.7348 3 35.4804 3.10536 35.2929 3.29289C35.1054 3.48043 35 3.73478 35 4H37C37 3.73478 36.8946 3.48043 36.7071 3.29289C36.5196 3.10536 36.2652 3 36 3ZM32.559 5L33.299 11.666C33.3398 12.0329 33.5145 12.3718 33.7896 12.6179C34.0647 12.864 34.4209 13.0001 34.79 13H37.21C37.5789 12.9998 37.9349 12.8636 38.2098 12.6175C38.4846 12.3715 38.6592 12.0327 38.7 11.666L39.442 5H32.56H32.559Z" fill="#8C8888"/>
</svg>
