<svg width="74" height="11" viewBox="0 0 74 11" fill="none" xmlns="http://www.w3.org/2000/svg">
<path d="M4.467 0.344277L3.25137 2.94193L0.502193 3.35209C0.0159434 3.43021 -0.171076 4.05521 0.184261 4.42631L2.14796 6.43803L1.68041 9.27006C1.60561 9.77787 2.12926 10.1685 2.5594 9.93412L5.00935 8.58646L7.4406 9.93412C7.87074 10.1685 8.39439 9.77787 8.31959 9.27006L7.85204 6.43803L9.81574 4.42631C10.1711 4.05521 9.98406 3.43021 9.49781 3.35209L6.76733 2.94193L5.533 0.344277C5.32728 -0.104942 4.69142 -0.124473 4.467 0.344277Z" fill="#FEBE43"/>
<path d="M20.467 0.344277L19.2514 2.94193L16.5022 3.35209C16.0159 3.43021 15.8289 4.05521 16.1843 4.42631L18.148 6.43803L17.6804 9.27006C17.6056 9.77787 18.1293 10.1685 18.5594 9.93412L21.0094 8.58646L23.4406 9.93412C23.8707 10.1685 24.3944 9.77787 24.3196 9.27006L23.852 6.43803L25.8157 4.42631C26.1711 4.05521 25.9841 3.43021 25.4978 3.35209L22.7673 2.94193L21.533 0.344277C21.3273 -0.104942 20.6914 -0.124473 20.467 0.344277Z" fill="#FEBE43"/>
<path d="M36.467 0.344277L35.2514 2.94193L32.5022 3.35209C32.0159 3.43021 31.8289 4.05521 32.1843 4.42631L34.148 6.43803L33.6804 9.27006C33.6056 9.77787 34.1293 10.1685 34.5594 9.93412L37.0094 8.58646L39.4406 9.93412C39.8707 10.1685 40.3944 9.77787 40.3196 9.27006L39.852 6.43803L41.8157 4.42631C42.1711 4.05521 41.9841 3.43021 41.4978 3.35209L38.7673 2.94193L37.533 0.344277C37.3273 -0.104942 36.6914 -0.124473 36.467 0.344277Z" fill="#FEBE43"/>
<path d="M52.467 0.344277L51.2514 2.94193L48.5022 3.35209C48.0159 3.43021 47.8289 4.05521 48.1843 4.42631L50.148 6.43803L49.6804 9.27006C49.6056 9.77787 50.1293 10.1685 50.5594 9.93412L53.0094 8.58646L55.4406 9.93412C55.8707 10.1685 56.3944 9.77787 56.3196 9.27006L55.852 6.43803L57.8157 4.42631C58.1711 4.05521 57.9841 3.43021 57.4978 3.35209L54.7673 2.94193L53.533 0.344277C53.3273 -0.104942 52.6914 -0.124473 52.467 0.344277Z" fill="#FEBE43"/>
<path d="M68.467 0.344277L67.2514 2.94193L64.5022 3.35209C64.0159 3.43021 63.8289 4.05521 64.1843 4.42631L66.148 6.43803L65.6804 9.27006C65.6056 9.77787 66.1293 10.1685 66.5594 9.93412L69.0094 8.58646L71.4406 9.93412C71.8707 10.1685 72.3944 9.77787 72.3196 9.27006L71.852 6.43803L73.8157 4.42631C74.1711 4.05521 73.9841 3.43021 73.4978 3.35209L70.7673 2.94193L69.533 0.344277C69.3273 -0.104942 68.6914 -0.124473 68.467 0.344277Z" fill="#FEBE43"/>
</svg>
