<svg width="39" height="39" viewBox="0 0 39 39" fill="none" xmlns="http://www.w3.org/2000/svg">
<rect x="-2.90315" y="19.4999" width="31.6828" height="31.6828" rx="6.84814" transform="rotate(-45 -2.90315 19.4999)" fill="#2BC155"/>
<path d="M25.1686 19.7914V24.2125C25.1686 25.1891 24.4445 25.9809 23.5512 25.9809H15.4641C14.5708 25.9809 13.8467 25.1891 13.8467 24.2125V19.7914M19.5077 18.023V17.1388M15.4641 18.023L15.8685 17.1388M23.5512 18.023L23.1469 17.1388M22.7425 18.9072V22.4441C22.7425 22.9324 22.3804 23.3283 21.9338 23.3283H17.0815C16.6349 23.3283 16.2728 22.9324 16.2728 22.4441V18.9072M26.8441 17.8764L25.5888 14.6738C25.3339 14.0236 24.7491 13.602 24.1021 13.602H14.9132C14.2662 13.602 13.6814 14.0236 13.4266 14.6738L12.1712 17.8764C11.8159 18.783 12.4241 19.7914 13.3262 19.7914C13.6595 19.7914 13.9791 19.6467 14.2147 19.3891L14.5753 18.9948C15.0662 18.4581 15.862 18.4581 16.3529 18.9948C16.7766 19.458 17.4404 19.5299 17.9389 19.1665L18.5561 18.7167C19.1094 18.3134 19.8462 18.3931 20.3164 18.9072C20.7866 19.4214 21.5234 19.5011 22.0767 19.0978L22.448 18.8272C23.0895 18.3596 23.9436 18.4521 24.4888 19.0482L24.8006 19.3891C25.0363 19.6467 25.3559 19.7914 25.6891 19.7914C26.5912 19.7914 27.1995 18.783 26.8441 17.8764Z" stroke="white" stroke-width="0.955587" stroke-linecap="round" stroke-linejoin="round"/>
</svg>
