<svg width="18" height="18" viewBox="0 0 18 18" fill="none" xmlns="http://www.w3.org/2000/svg">
<path d="M6.00072 14.037C4.98176 17.0939 0.905908 17.0939 0.905908 17.0939C0.905908 17.0939 0.905908 13.018 3.9628 11.9991" stroke="#438FFE" stroke-width="1.2" stroke-linecap="round" stroke-linejoin="round"/>
<path d="M15.1714 6.90432L9.05758 13.0181L4.98173 8.94225L11.0955 2.82847C13.4105 0.513439 15.7256 0.536021 16.7129 0.683326C16.8649 0.705986 17.0056 0.776879 17.1143 0.885557C17.223 0.994235 17.2938 1.13495 17.3165 1.28696C17.4638 2.27426 17.4864 4.58929 15.1714 6.90432Z" stroke="#438FFE" stroke-width="1.2" stroke-linecap="round" stroke-linejoin="round"/>
<path d="M14.1524 7.92332V13.7387C14.1524 13.8333 14.1338 13.927 14.0976 14.0144C14.0614 14.1018 14.0083 14.1812 13.9414 14.2481L11.0285 17.161C10.9363 17.2532 10.8208 17.3187 10.6943 17.3504C10.5678 17.3821 10.4351 17.3789 10.3103 17.3411C10.1854 17.3033 10.0732 17.2323 9.98557 17.1358C9.89791 17.0392 9.83811 16.9207 9.81253 16.7928L9.0576 13.0181" stroke="#438FFE" stroke-width="1.2" stroke-linecap="round" stroke-linejoin="round"/>
<path d="M10.0766 3.84758L4.26128 3.84758C4.16666 3.84758 4.07297 3.86622 3.98555 3.90243C3.89814 3.93863 3.81871 3.99171 3.7518 4.05861L0.838958 6.97146C0.746742 7.06367 0.681284 7.17919 0.649563 7.30569C0.617842 7.43218 0.621048 7.56492 0.65884 7.68973C0.696632 7.81455 0.767592 7.92677 0.864153 8.01443C0.960714 8.10208 1.07925 8.16189 1.20714 8.18746L4.9818 8.9424" stroke="#438FFE" stroke-width="1.2" stroke-linecap="round" stroke-linejoin="round"/>
</svg>
