<svg width="17" height="17" viewBox="0 0 17 17" fill="none" xmlns="http://www.w3.org/2000/svg">
<path d="M12.507 11.7988L9.50157 14.8043C9.37014 14.9358 9.21406 15.0402 9.04226 15.1114C8.87046 15.1826 8.68631 15.2193 8.50034 15.2193C8.31437 15.2193 8.13022 15.1826 7.95843 15.1114C7.78663 15.0402 7.63055 14.9358 7.49911 14.8043L4.49295 11.7988C3.70048 11.0063 3.16081 9.99661 2.94218 8.89739C2.72356 7.79817 2.83579 6.65881 3.2647 5.62338C3.6936 4.58795 4.41991 3.70295 5.35179 3.0803C6.28366 2.45765 7.37924 2.12532 8.49999 2.12532C9.62074 2.12532 10.7163 2.45765 11.6482 3.0803C12.5801 3.70295 13.3064 4.58795 13.7353 5.62338C14.1642 6.65881 14.2764 7.79817 14.0578 8.89739C13.8392 9.99661 13.2995 11.0063 12.507 11.7988V11.7988Z" stroke="white" stroke-width="1.16667" stroke-linecap="round" stroke-linejoin="round"/>
<path d="M10.625 7.79183C10.625 8.35541 10.4011 8.89592 10.0026 9.29443C9.60408 9.69295 9.06357 9.91683 8.49999 9.91683C7.9364 9.91683 7.3959 9.69295 6.99739 9.29443C6.59887 8.89592 6.37499 8.35541 6.37499 7.79183C6.37499 7.22824 6.59887 6.68774 6.99739 6.28923C7.3959 5.89071 7.9364 5.66683 8.49999 5.66683C9.06357 5.66683 9.60408 5.89071 10.0026 6.28923C10.4011 6.68774 10.625 7.22824 10.625 7.79183V7.79183Z" stroke="white" stroke-width="1.16667" stroke-linecap="round" stroke-linejoin="round"/>
</svg>
