<svg width="18" height="18" viewBox="0 0 18 18" fill="none" xmlns="http://www.w3.org/2000/svg">
<path d="M5.99057 5.99032H12.0092" stroke="#438FFE" stroke-width="1.4" stroke-linecap="round" stroke-linejoin="round"/>
<path d="M5.99057 8.99975H12.0092" stroke="#438FFE" stroke-width="1.4" stroke-linecap="round" stroke-linejoin="round"/>
<path d="M5.99057 12.0092H8.99991" stroke="#438FFE" stroke-width="1.4" stroke-linecap="round" stroke-linejoin="round"/>
<path d="M11.6977 17.2754H1.47666C1.27713 17.2754 1.08577 17.1962 0.944677 17.0551C0.803587 16.914 0.724324 16.7226 0.724324 16.5231V1.47641C0.724324 1.27687 0.803587 1.08551 0.944677 0.944425C1.08577 0.803335 1.27713 0.724071 1.47666 0.724071H16.5233C16.7229 0.724071 16.9142 0.803335 17.0553 0.944425C17.1964 1.08551 17.2757 1.27687 17.2757 1.47641V11.6975C17.2757 11.7963 17.2562 11.8941 17.2184 11.9854C17.1806 12.0766 17.1252 12.1596 17.0553 12.2294L12.2297 17.0551C12.1598 17.1249 12.0769 17.1803 11.9856 17.2182C11.8943 17.256 11.7965 17.2754 11.6977 17.2754V17.2754Z" stroke="#438FFE" stroke-width="1.4" stroke-linecap="round" stroke-linejoin="round"/>
<path d="M17.2077 12.0084H12.0094V17.207" stroke="#438FFE" stroke-width="1.4" stroke-linecap="round" stroke-linejoin="round"/>
</svg>
