<svg width="20" height="20" viewBox="0 0 20 20" fill="none" xmlns="http://www.w3.org/2000/svg">
<path fill-rule="evenodd" clip-rule="evenodd" d="M2.91768 11.4893V11.3069C2.94445 10.767 3.11749 10.2438 3.41896 9.79142C3.92074 9.24797 4.26425 8.582 4.41342 7.8634C4.41342 7.308 4.41342 6.74467 4.46193 6.18927C4.71257 3.51543 7.35639 1.66675 9.96787 1.66675H10.0326C12.644 1.66675 15.2879 3.51543 15.5466 6.18927C15.5951 6.74467 15.5466 7.308 15.587 7.8634C15.7382 8.58367 16.0813 9.2517 16.5815 9.79935C16.8852 10.2478 17.0585 10.769 17.0827 11.3069V11.4814C17.1008 12.2068 16.851 12.9141 16.3793 13.4729C15.7561 14.1263 14.9104 14.5328 14.0023 14.6154C11.3395 14.9011 8.65285 14.9011 5.99001 14.6154C5.08295 14.5292 4.23846 14.1233 3.613 13.4729C3.14866 12.9137 2.90219 12.2106 2.91768 11.4893Z" stroke="#8C8888" stroke-width="1.5" stroke-linecap="round" stroke-linejoin="round"/>
<path d="M7.96289 17.3765C8.37895 17.8987 8.98994 18.2367 9.66063 18.3156C10.3313 18.3945 11.0064 18.2079 11.5365 17.797C11.6995 17.6755 11.8462 17.5342 11.9731 17.3765" stroke="#8C8888" stroke-width="1.5" stroke-linecap="round" stroke-linejoin="round"/>
</svg>
