<svg width="66" height="10" viewBox="0 0 66 10" fill="none" xmlns="http://www.w3.org/2000/svg">
<path d="M4.467 0.344145L3.25137 2.9408L0.502193 3.3508C0.0159434 3.4289 -0.171076 4.05366 0.184261 4.42461L2.14796 6.43556L1.68041 9.2665C1.6056 9.77412 2.12926 10.1646 2.5594 9.93031L5.00935 8.58317L7.4406 9.93031C7.87074 10.1646 8.39439 9.77412 8.31959 9.2665L7.85204 6.43556L9.81574 4.42461C10.1711 4.05366 9.98406 3.4289 9.49781 3.3508L6.76733 2.9408L5.533 0.344145C5.32728 -0.104901 4.69142 -0.124425 4.467 0.344145Z" fill="#438FFE"/>
<path d="M18.467 0.344145L17.2514 2.9408L14.5022 3.3508C14.0159 3.4289 13.8289 4.05366 14.1843 4.42461L16.148 6.43556L15.6804 9.2665C15.6056 9.77412 16.1293 10.1646 16.5594 9.93031L19.0094 8.58317L21.4406 9.93031C21.8707 10.1646 22.3944 9.77412 22.3196 9.2665L21.852 6.43556L23.8157 4.42461C24.1711 4.05366 23.9841 3.4289 23.4978 3.3508L20.7673 2.9408L19.533 0.344145C19.3273 -0.104901 18.6914 -0.124425 18.467 0.344145Z" fill="#438FFE"/>
<path d="M32.467 0.344145L31.2514 2.9408L28.5022 3.3508C28.0159 3.4289 27.8289 4.05366 28.1843 4.42461L30.148 6.43556L29.6804 9.2665C29.6056 9.77412 30.1293 10.1646 30.5594 9.93031L33.0094 8.58317L35.4406 9.93031C35.8707 10.1646 36.3944 9.77412 36.3196 9.2665L35.852 6.43556L37.8157 4.42461C38.1711 4.05366 37.9841 3.4289 37.4978 3.3508L34.7673 2.9408L33.533 0.344145C33.3273 -0.104901 32.6914 -0.124425 32.467 0.344145Z" fill="#438FFE"/>
<path d="M46.467 0.344145L45.2514 2.9408L42.5022 3.3508C42.0159 3.4289 41.8289 4.05366 42.1843 4.42461L44.148 6.43556L43.6804 9.2665C43.6056 9.77412 44.1293 10.1646 44.5594 9.93031L47.0094 8.58317L49.4406 9.93031C49.8707 10.1646 50.3944 9.77412 50.3196 9.2665L49.852 6.43556L51.8157 4.42461C52.1711 4.05366 51.9841 3.4289 51.4978 3.3508L48.7673 2.9408L47.533 0.344145C47.3273 -0.104901 46.6914 -0.124425 46.467 0.344145Z" fill="#438FFE"/>
<path d="M59.3251 3.43533L59.5905 3.39576L59.7042 3.1528L60.9186 0.558731C60.933 0.529312 60.9482 0.517129 60.9579 0.511236C60.9696 0.504174 60.9844 0.499813 61.0013 0.500006C61.0184 0.500202 61.0339 0.505072 61.0458 0.51255C61.0561 0.518997 61.0681 0.529936 61.0784 0.552395L61.0784 0.552416L61.0814 0.558803L62.3158 3.15546L62.43 3.39575L62.6931 3.43526L65.42 3.84472C65.4482 3.84968 65.4775 3.86783 65.4931 3.92036C65.5092 3.9744 65.4982 4.03245 65.4558 4.07755L63.4943 6.08623L63.3175 6.26731L63.3587 6.51703L63.8253 9.34227C63.8327 9.3988 63.8096 9.44643 63.769 9.47693C63.7486 9.49226 63.7296 9.49827 63.7168 9.49965C63.7067 9.50072 63.6959 9.49981 63.6807 9.49171C63.6804 9.49155 63.6801 9.49138 63.6798 9.49121L61.2517 8.14582L61.0103 8.01206L60.7684 8.14504L58.3202 9.49121C58.3201 9.49131 58.3199 9.4914 58.3197 9.49149C58.3043 9.4998 58.2934 9.50073 58.2832 9.49965C58.2704 9.49827 58.2514 9.49226 58.231 9.47693C58.1904 9.44643 58.1673 9.39881 58.1747 9.34228L58.6413 6.51703L58.6825 6.26731L58.5057 6.08623L56.5442 4.07755C56.5018 4.03245 56.4908 3.9744 56.5069 3.92036C56.5225 3.86792 56.5517 3.84975 56.5799 3.84474L59.3251 3.43533Z" stroke="#8C8888"/>
</svg>
