<svg width="30" height="30" viewBox="0 0 30 30" fill="none" xmlns="http://www.w3.org/2000/svg">
<path d="M26.25 13.75C26.25 20.6875 21.45 27.175 15 28.75C8.55 27.175 3.75 20.6875 3.75 13.75V6.25L15 1.25L26.25 6.25V13.75ZM15 26.25C19.6875 25 23.75 19.425 23.75 14.025V7.875L15 3.975L6.25 7.875V14.025C6.25 19.425 10.3125 25 15 26.25ZM15 7.5C15.9946 7.5 16.9484 7.89509 17.6517 8.59835C18.3549 9.30161 18.75 10.2554 18.75 11.25C18.75 12.8875 17.7125 14.275 16.25 14.7875V17.5H18.75V20H16.25V22.5H13.75V14.7875C13.0175 14.5305 12.3833 14.0518 11.9353 13.4179C11.4873 12.7839 11.2478 12.0262 11.25 11.25C11.25 10.2554 11.6451 9.30161 12.3483 8.59835C13.0516 7.89509 14.0054 7.5 15 7.5ZM15 10C14.6685 10 14.3505 10.1317 14.1161 10.3661C13.8817 10.6005 13.75 10.9185 13.75 11.25C13.75 11.5815 13.8817 11.8995 14.1161 12.1339C14.3505 12.3683 14.6685 12.5 15 12.5C15.3315 12.5 15.6495 12.3683 15.8839 12.1339C16.1183 11.8995 16.25 11.5815 16.25 11.25C16.25 10.9185 16.1183 10.6005 15.8839 10.3661C15.6495 10.1317 15.3315 10 15 10Z" fill="white"/>
</svg>
