<svg width="30" height="30" viewBox="0 0 30 30" fill="none" xmlns="http://www.w3.org/2000/svg">
<path fill-rule="evenodd" clip-rule="evenodd" d="M9.207 30C8.589 30 8.0025 29.952 7.4505 29.8575L7.1235 29.796C3.567 29.0565 1.5 26.3325 1.5 22.1865V7.8135C1.5 7.3125 1.53 6.8325 1.59 6.3735C2.1135 2.346 4.881 0 9.207 0H20.7945C25.5885 0 28.455 2.88 28.5 7.698V7.8135V22.1865C28.5 27.072 25.626 30 20.7945 30H9.207ZM9.20702 2.1855C5.52302 2.1855 3.65552 4.08 3.65552 7.8135V22.1865C3.65552 25.92 5.52302 27.8145 9.20702 27.8145H20.781C24.4635 27.8145 26.319 25.92 26.319 22.1865V7.8135C26.319 4.08 24.4635 2.1855 20.781 2.1855H9.20702ZM21.459 21.351C21.459 20.751 20.9805 20.265 20.3895 20.265H9.573C8.982 20.265 8.502 20.751 8.502 21.351C8.502 21.951 8.982 22.437 9.573 22.437H20.3895C20.9805 22.437 21.459 21.951 21.459 21.351ZM20.3895 13.9065C20.802 13.8615 21.2055 14.0595 21.426 14.415C21.6465 14.7735 21.6465 15.2265 21.426 15.585C21.2055 15.9405 20.802 16.1385 20.3895 16.0935H9.57302C9.02402 16.0305 8.60852 15.561 8.60852 15C8.60852 14.439 9.02402 13.968 9.57302 13.9065H20.3895ZM14.6655 8.65649C14.6655 8.09549 14.25 7.62449 13.701 7.56299H9.58651C9.03601 7.62449 8.62051 8.09549 8.62051 8.65649C8.62051 9.21599 9.03601 9.68699 9.58651 9.74849H13.701C14.25 9.68699 14.6655 9.21599 14.6655 8.65649Z" fill="#438FFE"/>
</svg>
