<svg width="32" height="32" viewBox="0 0 32 32" fill="none" xmlns="http://www.w3.org/2000/svg">
<path d="M9.65757 18.2856C10.3787 18.2856 11.0703 18.0034 11.5803 17.5011C12.0902 16.9987 12.3767 16.3174 12.3767 15.607C12.3767 14.8966 12.0902 14.2153 11.5803 13.713C11.0703 13.2107 10.3787 12.9285 9.65757 12.9285C8.93642 12.9285 8.24481 13.2107 7.73488 13.713C7.22495 14.2153 6.93848 14.8966 6.93848 15.607C6.93848 16.3174 7.22495 16.9987 7.73488 17.5011C8.24481 18.0034 8.93642 18.2856 9.65757 18.2856Z" fill="#438FFE"/>
<path d="M26.8782 25.4286C26.8782 26.3758 26.4962 27.2842 25.8163 27.954C25.1364 28.6237 24.2142 29 23.2527 29H5.12545C4.16392 29 3.24178 28.6237 2.56187 27.954C1.88197 27.2842 1.5 26.3758 1.5 25.4286V11.1429C1.5 10.1963 1.88147 9.28841 2.56059 8.61874C3.23971 7.94907 4.16093 7.57238 5.12183 7.57143C5.12183 6.62423 5.50379 5.71582 6.1837 5.04605C6.8636 4.37627 7.78575 4 8.74728 4H26.8745C27.8361 4 28.7582 4.37627 29.4381 5.04605C30.118 5.71582 30.5 6.62423 30.5 7.57143V21.8571C30.5 22.8037 30.1185 23.7116 29.4394 24.3813C28.7603 25.0509 27.8391 25.4276 26.8782 25.4286ZM26.8745 5.78571H8.74728C8.26652 5.78571 7.80544 5.97385 7.46549 6.30874C7.12554 6.64362 6.93455 7.09783 6.93455 7.57143H23.2527C24.2142 7.57143 25.1364 7.9477 25.8163 8.61748C26.4962 9.28725 26.8782 10.1957 26.8782 11.1429V23.6429C27.3583 23.6419 27.8185 23.4534 28.1576 23.1186C28.4968 22.7838 28.6873 22.3301 28.6873 21.8571V7.57143C28.6873 7.09783 28.4963 6.64362 28.1563 6.30874C27.8164 5.97385 27.3553 5.78571 26.8745 5.78571ZM5.12545 9.35714C4.64469 9.35714 4.18361 9.54528 3.84366 9.88017C3.50371 10.2151 3.31273 10.6693 3.31273 11.1429V25.4286L8.1092 21.225C8.25736 21.0796 8.45201 20.9891 8.66016 20.9689C8.8683 20.9488 9.07712 21.0001 9.25122 21.1143L14.0731 24.2804L20.7983 17.6554C20.9327 17.5228 21.106 17.4353 21.2938 17.4052C21.4815 17.375 21.6741 17.4038 21.8442 17.4875L25.0654 20.9643V11.1429C25.0654 10.6693 24.8745 10.2151 24.5345 9.88017C24.1946 9.54528 23.7335 9.35714 23.2527 9.35714H5.12545Z" fill="#438FFE"/>
</svg>
