<svg width="16" height="16" viewBox="0 0 16 16" fill="none" xmlns="http://www.w3.org/2000/svg">
<path d="M3.7377 6.68852C5.3674 6.68852 6.68852 5.3674 6.68852 3.7377C6.68852 2.10801 5.3674 0.786885 3.7377 0.786885C2.10801 0.786885 0.786885 2.10801 0.786885 3.7377C0.786885 5.3674 2.10801 6.68852 3.7377 6.68852Z" stroke="#8C8888" stroke-width="1.5" stroke-linecap="round" stroke-linejoin="round"/>
<path d="M12.2623 6.68852C13.892 6.68852 15.2131 5.3674 15.2131 3.7377C15.2131 2.10801 13.892 0.786885 12.2623 0.786885C10.6326 0.786885 9.31148 2.10801 9.31148 3.7377C9.31148 5.3674 10.6326 6.68852 12.2623 6.68852Z" stroke="#8C8888" stroke-width="1.5" stroke-linecap="round" stroke-linejoin="round"/>
<path d="M3.7377 15.2131C5.3674 15.2131 6.68852 13.892 6.68852 12.2623C6.68852 10.6326 5.3674 9.31148 3.7377 9.31148C2.10801 9.31148 0.786885 10.6326 0.786885 12.2623C0.786885 13.892 2.10801 15.2131 3.7377 15.2131Z" stroke="#8C8888" stroke-width="1.5" stroke-linecap="round" stroke-linejoin="round"/>
<path d="M12.2623 15.2131C13.892 15.2131 15.2131 13.892 15.2131 12.2623C15.2131 10.6326 13.892 9.31148 12.2623 9.31148C10.6326 9.31148 9.31148 10.6326 9.31148 12.2623C9.31148 13.892 10.6326 15.2131 12.2623 15.2131Z" stroke="#8C8888" stroke-width="1.5" stroke-linecap="round" stroke-linejoin="round"/>
</svg>
