<svg width="16" height="16" viewBox="0 0 16 16" fill="none" xmlns="http://www.w3.org/2000/svg">
<path d="M0.615048 2.25635C0.615048 1.82112 0.787943 1.40371 1.0957 1.09596C1.40345 0.7882 1.82086 0.615305 2.25609 0.615305H4.9474C5.11954 0.615436 5.28728 0.669703 5.42688 0.770425C5.56648 0.871147 5.67086 1.01322 5.72526 1.17654L6.9544 4.86315C7.01668 5.0505 7.00931 5.25403 6.93365 5.4364C6.85799 5.61876 6.71912 5.76773 6.5425 5.85598L4.69058 6.78317C5.59834 8.79224 7.2075 10.4014 9.21658 11.3092L10.1438 9.45725C10.232 9.28063 10.381 9.14175 10.5633 9.06609C10.7457 8.99043 10.9492 8.98307 11.1366 9.04534L14.8232 10.2745C14.9867 10.3289 15.1288 10.4334 15.2296 10.5732C15.3303 10.713 15.3845 10.8809 15.3844 11.0532V13.7437C15.3844 14.1789 15.2115 14.5963 14.9038 14.904C14.596 15.2118 14.1786 15.3847 13.7434 15.3847H12.9229C6.12567 15.3847 0.615048 9.87407 0.615048 3.07687V2.25635Z" stroke="white" stroke-width="1.16667" stroke-linecap="round" stroke-linejoin="round"/>
</svg>
