<svg width="32" height="32" viewBox="0 0 32 32" fill="none" xmlns="http://www.w3.org/2000/svg">
<path d="M20.8206 22.1811C20.8206 21.1481 20.4483 20.2779 19.7035 19.5705C18.9703 18.8632 17.7272 18.2232 15.9742 17.6505C13.5338 16.9207 11.7522 15.9719 10.6294 14.8042C9.51808 13.6253 8.96241 12.1319 8.96241 10.3242C8.96241 8.48281 9.50662 6.97263 10.5951 5.79368C11.695 4.61474 13.2016 3.91298 15.1149 3.68842V0H17.6756V3.70526C19.6004 3.96351 21.0956 4.75509 22.1611 6.08C23.2381 7.40491 23.7766 9.21825 23.7766 11.52H20.6144C20.6144 9.93684 20.2306 8.6793 19.4629 7.74737C18.6953 6.81544 17.6584 6.34947 16.3523 6.34947C14.9889 6.34947 13.9463 6.69754 13.2245 7.39368C12.5027 8.0786 12.1418 9.0386 12.1418 10.2737C12.1418 11.4189 12.5199 12.334 13.276 13.0189C14.0437 13.6926 15.2982 14.3102 17.0397 14.8716C18.7927 15.4218 20.1561 16.0337 21.13 16.7074C22.1153 17.3698 22.8371 18.1446 23.2954 19.0316C23.7651 19.9186 24 20.9572 24 22.1474C24 24.0449 23.4157 25.5719 22.247 26.7284C21.0899 27.8849 19.4629 28.5698 17.3663 28.7832V32H14.8228V28.7832C12.6917 28.5923 11.019 27.8512 9.80451 26.56C8.6015 25.2575 8 23.4947 8 21.2716H11.1794C11.1794 22.8323 11.5976 24.0337 12.4339 24.8758C13.2703 25.7179 14.4561 26.1389 15.9914 26.1389C17.4923 26.1389 18.6724 25.7853 19.5317 25.0779C20.391 24.3705 20.8206 23.4049 20.8206 22.1811Z" fill="#438FFE"/>
</svg>
