<svg width="17" height="16" viewBox="0 0 17 16" fill="none" xmlns="http://www.w3.org/2000/svg">
<path d="M4.42313 12.5147L1.83103 14.6937C1.73716 14.7726 1.62272 14.8231 1.50115 14.8391C1.37958 14.8552 1.25595 14.8363 1.14479 14.7845C1.03363 14.7327 0.939562 14.6503 0.873652 14.5469C0.807741 14.4435 0.772727 14.3234 0.772727 14.2008V1.41667C0.772727 1.24588 0.840571 1.08209 0.961333 0.961333C1.08209 0.840571 1.24588 0.772727 1.41667 0.772727H15.5833C15.7541 0.772727 15.9179 0.840571 16.0387 0.961333C16.1594 1.08209 16.2273 1.24588 16.2273 1.41667V11.7197C16.2273 11.8905 16.1594 12.0543 16.0387 12.175C15.9179 12.2958 15.7541 12.3636 15.5833 12.3636H4.8375C4.6859 12.3636 4.53917 12.4171 4.42313 12.5147Z" stroke="#8C8888" stroke-width="1.5" stroke-linecap="round" stroke-linejoin="round"/>
<path d="M4.63636 7.53409C5.16982 7.53409 5.60227 7.10164 5.60227 6.56818C5.60227 6.03472 5.16982 5.60227 4.63636 5.60227C4.10291 5.60227 3.67045 6.03472 3.67045 6.56818C3.67045 7.10164 4.10291 7.53409 4.63636 7.53409Z" fill="#DEDEDE"/>
<path d="M8.5 7.53409C9.03346 7.53409 9.46591 7.10164 9.46591 6.56818C9.46591 6.03472 9.03346 5.60227 8.5 5.60227C7.96654 5.60227 7.53409 6.03472 7.53409 6.56818C7.53409 7.10164 7.96654 7.53409 8.5 7.53409Z" fill="#DEDEDE"/>
<path d="M12.3636 7.53409C12.8971 7.53409 13.3295 7.10164 13.3295 6.56818C13.3295 6.03472 12.8971 5.60227 12.3636 5.60227C11.8302 5.60227 11.3977 6.03472 11.3977 6.56818C11.3977 7.10164 11.8302 7.53409 12.3636 7.53409Z" fill="#DEDEDE"/>
<path d="M4.63636 7.53409C5.16982 7.53409 5.60227 7.10164 5.60227 6.56818C5.60227 6.03472 5.16982 5.60227 4.63636 5.60227C4.10291 5.60227 3.67045 6.03472 3.67045 6.56818C3.67045 7.10164 4.10291 7.53409 4.63636 7.53409Z" fill="#8C8888"/>
<path d="M8.5 7.53409C9.03346 7.53409 9.46591 7.10164 9.46591 6.56818C9.46591 6.03472 9.03346 5.60227 8.5 5.60227C7.96654 5.60227 7.53409 6.03472 7.53409 6.56818C7.53409 7.10164 7.96654 7.53409 8.5 7.53409Z" fill="#8C8888"/>
<path d="M12.3636 7.53409C12.8971 7.53409 13.3295 7.10164 13.3295 6.56818C13.3295 6.03472 12.8971 5.60227 12.3636 5.60227C11.8302 5.60227 11.3977 6.03472 11.3977 6.56818C11.3977 7.10164 11.8302 7.53409 12.3636 7.53409Z" fill="#8C8888"/>
</svg>
