<svg width="18" height="18" viewBox="0 0 18 18" fill="none" xmlns="http://www.w3.org/2000/svg">
<path d="M7.3125 7.875V12.375C7.3125 12.5242 7.37176 12.6673 7.47725 12.7727C7.58274 12.8782 7.72582 12.9375 7.875 12.9375C8.02418 12.9375 8.16726 12.8782 8.27275 12.7727C8.37824 12.6673 8.4375 12.5242 8.4375 12.375V7.875C8.4375 7.72582 8.37824 7.58274 8.27275 7.47725C8.16726 7.37176 8.02418 7.3125 7.875 7.3125C7.72582 7.3125 7.58274 7.37176 7.47725 7.47725C7.37176 7.58274 7.3125 7.72582 7.3125 7.875Z" fill="#438FFE"/>
<path d="M10.125 7.3125C10.2742 7.3125 10.4173 7.37176 10.5227 7.47725C10.6282 7.58274 10.6875 7.72582 10.6875 7.875V12.375C10.6875 12.5242 10.6282 12.6673 10.5227 12.7727C10.4173 12.8782 10.2742 12.9375 10.125 12.9375C9.97582 12.9375 9.83274 12.8782 9.72725 12.7727C9.62176 12.6673 9.5625 12.5242 9.5625 12.375V7.875C9.5625 7.72582 9.62176 7.58274 9.72725 7.47725C9.83274 7.37176 9.97582 7.3125 10.125 7.3125Z" fill="#438FFE"/>
<path d="M11.25 4.5H14.625C14.7742 4.5 14.9173 4.55926 15.0227 4.66475C15.1282 4.77024 15.1875 4.91332 15.1875 5.0625C15.1875 5.21168 15.1282 5.35476 15.0227 5.46025C14.9173 5.56574 14.7742 5.625 14.625 5.625H14.0029L13.1569 13.248C13.0805 13.936 12.753 14.5716 12.2372 15.0332C11.7214 15.4949 11.0535 15.7501 10.3612 15.75H7.63875C6.94654 15.7501 6.27861 15.4949 5.7628 15.0332C5.247 14.5716 4.91955 13.936 4.84312 13.248L3.996 5.625H3.375C3.22582 5.625 3.08274 5.56574 2.97725 5.46025C2.87176 5.35476 2.8125 5.21168 2.8125 5.0625C2.8125 4.91332 2.87176 4.77024 2.97725 4.66475C3.08274 4.55926 3.22582 4.5 3.375 4.5H6.75C6.75 3.90326 6.98705 3.33097 7.40901 2.90901C7.83097 2.48705 8.40326 2.25 9 2.25C9.59674 2.25 10.169 2.48705 10.591 2.90901C11.0129 3.33097 11.25 3.90326 11.25 4.5ZM9 3.375C8.70163 3.375 8.41548 3.49353 8.2045 3.7045C7.99353 3.91548 7.875 4.20163 7.875 4.5H10.125C10.125 4.20163 10.0065 3.91548 9.7955 3.7045C9.58452 3.49353 9.29837 3.375 9 3.375ZM5.12888 5.625L5.96137 13.1243C6.00733 13.537 6.20385 13.9182 6.51332 14.1951C6.82279 14.472 7.22349 14.6251 7.63875 14.625H10.3612C10.7763 14.6248 11.1767 14.4716 11.486 14.1947C11.7952 13.9179 11.9916 13.5368 12.0375 13.1243L12.8723 5.625H5.13H5.12888Z" fill="#438FFE"/>
</svg>
