<svg width="16" height="16" viewBox="0 0 16 16" fill="none" xmlns="http://www.w3.org/2000/svg">
<path d="M3.63636 8.72727H0.727273C0.534388 8.72727 0.349403 8.8039 0.213013 8.94029C0.0766231 9.07668 0 9.26166 0 9.45455V15.2727C0 15.4656 0.0766231 15.6506 0.213013 15.787C0.349403 15.9234 0.534388 16 0.727273 16H3.63636C3.82925 16 4.01423 15.9234 4.15062 15.787C4.28701 15.6506 4.36364 15.4656 4.36364 15.2727V9.45455C4.36364 9.26166 4.28701 9.07668 4.15062 8.94029C4.01423 8.8039 3.82925 8.72727 3.63636 8.72727ZM2.90909 14.5455H1.45455V10.1818H2.90909V14.5455ZM15.2727 5.81818H12.3636C12.1708 5.81818 11.9858 5.8948 11.8494 6.0312C11.713 6.16759 11.6364 6.35257 11.6364 6.54545V15.2727C11.6364 15.4656 11.713 15.6506 11.8494 15.787C11.9858 15.9234 12.1708 16 12.3636 16H15.2727C15.4656 16 15.6506 15.9234 15.787 15.787C15.9234 15.6506 16 15.4656 16 15.2727V6.54545C16 6.35257 15.9234 6.16759 15.787 6.0312C15.6506 5.8948 15.4656 5.81818 15.2727 5.81818ZM14.5455 14.5455H13.0909V7.27273H14.5455V14.5455ZM9.45455 0H6.54545C6.35257 0 6.16759 0.0766231 6.0312 0.213013C5.8948 0.349403 5.81818 0.534388 5.81818 0.727273V15.2727C5.81818 15.4656 5.8948 15.6506 6.0312 15.787C6.16759 15.9234 6.35257 16 6.54545 16H9.45455C9.64743 16 9.83241 15.9234 9.96881 15.787C10.1052 15.6506 10.1818 15.4656 10.1818 15.2727V0.727273C10.1818 0.534388 10.1052 0.349403 9.96881 0.213013C9.83241 0.0766231 9.64743 0 9.45455 0ZM8.72727 14.5455H7.27273V1.45455H8.72727V14.5455Z" fill="#8C8888"/>
</svg>
