<svg width="125" height="30" viewBox="0 0 125 30" fill="none" xmlns="http://www.w3.org/2000/svg">
<path d="M46.1806 5.78695C49.0694 5.04483 51.5871 4.67377 53.7337 4.67377C58.3278 4.67377 60.6248 6.22636 60.6248 9.33156C60.6248 11.2259 59.712 12.6711 57.8864 13.6671C59.1102 13.9601 60.1233 14.5264 60.9257 15.3662C61.7282 16.1864 62.1294 17.2215 62.1294 18.4714C62.1294 20.8149 61.2367 22.6312 59.4512 23.9201C57.6657 25.1895 55.459 25.8242 52.8309 25.8242C50.2029 25.8242 47.9259 25.3165 46 24.3009C46.6219 22.1917 46.9329 19.3502 46.9329 15.7763C46.9329 12.1829 46.6821 8.85308 46.1806 5.78695ZM50.7245 22.6605C51.6072 22.9339 52.4899 23.0706 53.3726 23.0706C54.7568 23.0706 55.9003 22.7386 56.8031 22.0746C57.7059 21.391 58.1572 20.4341 58.1572 19.2037C58.1572 16.8602 56.8533 15.6884 54.2453 15.6884C53.0015 15.6884 51.7376 15.9423 50.4536 16.4501C50.4536 18.4225 50.5439 20.4927 50.7245 22.6605ZM50.4236 13.8722C50.7044 13.8136 51.1157 13.7452 51.6573 13.6671C52.2191 13.589 52.6504 13.5206 52.9513 13.4621C53.2522 13.4035 53.6234 13.3156 54.0647 13.1984C54.5261 13.0812 54.8772 12.9445 55.1179 12.7883C55.3787 12.6125 55.6395 12.3977 55.9003 12.1438C56.4019 11.6556 56.6526 10.9427 56.6526 10.0053C56.6526 8.18908 55.5392 7.28096 53.3124 7.28096C52.5902 7.28096 51.7075 7.39813 50.6643 7.63249C50.5038 11.636 50.4236 13.7159 50.4236 13.8722Z" fill="#4793FE"/>
<path d="M65.0105 11.0892C65.6525 10.9134 66.2944 10.8256 66.9364 10.8256C67.5984 10.8256 68.1602 11.0209 68.6216 11.4115C69.083 11.802 69.3137 12.3098 69.3137 12.9348C69.3137 13.5402 69.2034 14.6045 68.9827 16.1278C68.7821 17.6316 68.6818 18.8034 68.6818 19.6431C68.6818 21.8304 68.8924 23.715 69.3137 25.2969C68.6918 25.5313 68.0197 25.6485 67.2975 25.6485C66.5753 25.6485 66.0036 25.4922 65.5823 25.1798C65.161 24.8478 64.9503 24.379 64.9503 23.7736C64.9503 23.1487 65.0707 22.1332 65.3114 20.727C65.5522 19.3209 65.6725 18.1589 65.6725 17.241C65.6725 14.7998 65.4519 12.7492 65.0105 11.0892ZM65.4017 4.46871C66.1039 4.15624 66.796 4 67.4781 4C68.1602 4 68.6617 4.17577 68.9827 4.5273C69.3237 4.8593 69.4942 5.3573 69.4942 6.02131C69.4942 6.68531 69.2635 7.27119 68.8021 7.77896C68.3608 8.28673 67.779 8.54061 67.0568 8.54061C65.5722 8.54061 64.83 7.78873 64.83 6.28495C64.83 5.62095 65.0205 5.01553 65.4017 4.46871Z" fill="#4793FE"/>
<path d="M75.2383 20.3169C75.1781 20.5903 75.1481 20.8149 75.1481 20.9907C75.1481 21.7914 75.3888 22.4066 75.8703 22.8362C76.3718 23.2659 77.0338 23.4807 77.8563 23.4807C78.6989 23.4807 79.391 23.3342 79.9327 23.0413C80.4944 22.7288 80.7753 22.2699 80.7753 21.6644C80.7753 21.059 80.4744 20.5806 79.8725 20.229C79.2907 19.858 78.5786 19.565 77.736 19.3502C76.9135 19.1354 76.0809 18.901 75.2383 18.6471C74.3957 18.3737 73.6735 17.9538 73.0717 17.3875C72.4899 16.8211 72.199 16.1083 72.199 15.249C72.199 13.9015 72.9313 12.7688 74.3957 11.8509C75.8602 10.933 77.3949 10.474 78.9999 10.474C80.7653 10.474 82.1094 10.8256 83.0322 11.5286C83.5739 11.9387 83.8447 12.4856 83.8447 13.1691C83.8447 13.8331 83.5739 14.3799 83.0322 14.8096C82.5106 15.2197 81.8686 15.4248 81.1063 15.4248C80.9458 15.4248 80.7452 15.4052 80.5045 15.3662C80.5646 15.1123 80.5947 14.8877 80.5947 14.6924C80.5947 14.1261 80.3741 13.6964 79.9327 13.4035C79.4914 13.1105 78.8895 12.964 78.1272 12.964C77.3849 12.964 76.7028 13.1105 76.0809 13.4035C75.8402 13.7159 75.7198 14.1163 75.7198 14.6045C75.7198 15.0928 76.0107 15.4931 76.5925 15.8056C77.1743 16.0985 77.8764 16.3622 78.6989 16.5965C79.5415 16.8114 80.3841 17.0652 81.2267 17.3582C82.0693 17.6316 82.7814 18.071 83.3632 18.6764C83.945 19.2623 84.2359 20.0044 84.2359 20.9028C84.2359 22.3675 83.4836 23.5881 81.979 24.5646C80.4944 25.5215 78.9597 26 77.3749 26C75.79 26 74.476 25.7266 73.4328 25.1798C72.4097 24.6134 71.8981 23.7639 71.8981 22.6312C71.8981 21.9281 72.1589 21.3617 72.6805 20.9321C73.2222 20.4829 73.8741 20.2583 74.6365 20.2583C74.797 20.2583 74.9976 20.2779 75.2383 20.3169Z" fill="#4793FE"/>
<path d="M87.428 6.51931C88.07 6.20683 88.722 6.0506 89.384 6.0506C90.046 6.0506 90.5777 6.25566 90.9789 6.66578C91.4002 7.0759 91.6108 7.68131 91.6108 8.48202C91.6108 9.28273 91.5607 10.1909 91.4604 11.2064C92.965 11.2064 94.3994 11.0013 95.7636 10.5912C96.0043 10.9818 96.1247 11.4407 96.1247 11.968C96.1247 12.4758 95.8839 12.8957 95.4024 13.2277C94.941 13.5402 94.4696 13.6964 93.9881 13.6964C93.5066 13.6964 92.965 13.6378 92.3631 13.5206C91.7613 13.4035 91.3701 13.3351 91.1895 13.3156C91.1695 13.4913 91.1093 13.8429 91.009 14.3702C90.9287 14.8975 90.8585 15.3564 90.7983 15.747C90.6379 16.8211 90.5576 17.9734 90.5576 19.2037C90.5576 21.8793 91.4503 23.217 93.2358 23.217C93.8978 23.217 94.6602 22.9925 95.5228 22.5433C95.7836 22.9143 95.914 23.3928 95.914 23.9787C95.914 24.5646 95.583 25.0235 94.921 25.3555C94.279 25.668 93.5066 25.8242 92.6039 25.8242C89.0731 25.8242 87.3076 23.8713 87.3076 19.9654C87.3076 19.399 87.3879 18.3737 87.5484 16.8895C87.7289 15.4052 87.8192 14.2042 87.8192 13.2863C86.8563 13.3449 86.0839 13.5109 85.5021 13.7843C85.2614 13.4328 85.141 13.0324 85.141 12.5832C85.141 12.1145 85.3115 11.7337 85.6526 11.4407C85.9936 11.1283 86.4149 10.972 86.9165 10.972C87.418 10.972 87.749 10.9818 87.9095 11.0013C87.9296 10.8451 87.9396 10.64 87.9396 10.3862C87.9396 8.92144 87.7691 7.63249 87.428 6.51931Z" fill="#4793FE"/>
<path d="M102.55 25.2969C101.928 25.5313 101.266 25.6485 100.564 25.6485C99.862 25.6485 99.2903 25.4922 98.8489 25.1798C98.4277 24.8478 98.217 24.3986 98.217 23.8322C98.217 23.2463 98.3073 22.1917 98.4878 20.6684C98.6684 19.1451 98.7587 17.6707 98.7587 16.245C98.7587 14.7998 98.528 13.1105 98.0665 11.1771C98.7085 10.9427 99.3405 10.8256 99.9624 10.8256C100.584 10.8256 101.116 11.0306 101.557 11.4407C102.019 11.8509 102.249 12.3977 102.249 13.0812C102.249 13.4328 102.189 13.9601 102.069 14.6631C101.948 15.3466 101.878 15.8642 101.858 16.2157C102.641 14.4776 103.563 13.1203 104.627 12.1438C105.71 11.1478 106.783 10.6498 107.847 10.6498C108.589 10.6498 109.181 10.9037 109.622 11.4115C110.063 11.9192 110.284 12.5637 110.284 13.3449C110.284 14.1065 110.083 14.7315 109.682 15.2197C109.281 15.6884 108.779 15.9228 108.178 15.9228C107.596 15.9228 107.124 15.8642 106.763 15.747C106.823 15.5126 106.853 15.2978 106.853 15.1025C106.853 14.3018 106.563 13.9015 105.981 13.9015C105.098 13.9015 104.266 14.7705 103.483 16.5087C102.721 18.2273 102.209 19.8384 101.948 21.3422C102.049 22.8069 102.249 24.1252 102.55 25.2969Z" fill="#4793FE"/>
<path d="M117.357 26C115.15 26 113.525 25.3751 112.482 24.1252C111.438 22.8557 110.917 21.0981 110.917 18.8522C110.917 16.5868 111.609 14.6241 112.993 12.964C114.377 11.304 116.153 10.474 118.32 10.474C122.773 10.474 125 12.9152 125 17.7976C125 20.0826 124.278 22.0257 122.833 23.6272C121.389 25.2091 119.563 26 117.357 26ZM115.19 13.6964C114.829 14.8291 114.648 15.9618 114.648 17.0945C114.648 18.2273 114.688 19.1061 114.769 19.731C114.849 20.356 114.999 20.9809 115.22 21.6059C115.681 22.8753 116.584 23.51 117.928 23.51C119.293 23.51 120.185 23.1585 120.607 22.4554C121.048 21.7523 121.269 20.6684 121.269 19.2037C121.269 15.0439 120.255 12.964 118.229 12.964C117.066 12.964 116.053 13.2082 115.19 13.6964Z" fill="#4793FE"/>
<path d="M22.5 3.75C22.8062 3.75004 23.1017 3.86245 23.3305 4.06589C23.5593 4.26934 23.7054 4.54969 23.7412 4.85375L23.75 5V25C23.7496 25.3186 23.6277 25.625 23.4089 25.8567C23.1902 26.0884 22.8913 26.2278 22.5733 26.2465C22.2552 26.2651 21.942 26.1617 21.6977 25.9572C21.4534 25.7527 21.2964 25.4626 21.2587 25.1463L21.25 25V18.75H20C19.6938 18.75 19.3983 18.6376 19.1695 18.4341C18.9407 18.2307 18.7946 17.9503 18.7587 17.6462L18.75 17.5V10C18.75 7.2375 20.625 3.75 22.5 3.75ZM15 3.75C15.3062 3.75004 15.6017 3.86245 15.8305 4.06589C16.0593 4.26934 16.2054 4.54969 16.2413 4.85375L16.25 5V11.25C16.2499 12.3586 15.8815 13.4357 15.2027 14.3122C14.524 15.1887 13.5733 15.8149 12.5 16.0925V25C12.4996 25.3186 12.3777 25.625 12.1589 25.8567C11.9402 26.0884 11.6413 26.2278 11.3233 26.2465C11.0052 26.2651 10.692 26.1617 10.4477 25.9572C10.2034 25.7527 10.0464 25.4626 10.0087 25.1463L10 25V16.0925C8.96932 15.826 8.05051 15.2377 7.37721 14.4131C6.7039 13.5885 6.31121 12.5706 6.25625 11.5075L6.25 11.25V5C6.25035 4.6814 6.37235 4.37496 6.59106 4.14329C6.80977 3.91162 7.10869 3.77221 7.42674 3.75353C7.7448 3.73486 8.05797 3.83834 8.30229 4.04283C8.54661 4.24732 8.70362 4.53738 8.74125 4.85375L8.75 5V11.25C8.75001 11.6888 8.86553 12.1199 9.08495 12.5C9.30437 12.88 9.61996 13.1956 10 13.415V5C10.0004 4.6814 10.1223 4.37496 10.3411 4.14329C10.5598 3.91162 10.8587 3.77221 11.1767 3.75353C11.4948 3.73486 11.808 3.83834 12.0523 4.04283C12.2966 4.24732 12.4536 4.53738 12.4913 4.85375L12.5 5L12.5013 13.415C12.8501 13.2134 13.145 12.9304 13.3609 12.5902C13.5768 12.25 13.7073 11.8627 13.7413 11.4612L13.75 11.25V5C13.75 4.66848 13.8817 4.35054 14.1161 4.11612C14.3505 3.8817 14.6685 3.75 15 3.75Z" fill="#438FFE"/>
</svg>
