<svg width="18" height="18" viewBox="0 0 18 18" fill="none" xmlns="http://www.w3.org/2000/svg">
<path d="M6.00082 14.037C4.98186 17.0939 0.906004 17.0939 0.906004 17.0939C0.906004 17.0939 0.906004 13.018 3.96289 11.9991" stroke="#8C8888" stroke-width="1.2" stroke-linecap="round" stroke-linejoin="round"/>
<path d="M15.1714 6.90432L9.0576 13.0181L4.98175 8.94225L11.0955 2.82847C13.4106 0.513439 15.7256 0.536021 16.7129 0.683326C16.8649 0.705986 17.0056 0.776879 17.1143 0.885557C17.223 0.994235 17.2939 1.13495 17.3165 1.28696C17.4638 2.27426 17.4864 4.58929 15.1714 6.90432Z" stroke="#8C8888" stroke-width="1.2" stroke-linecap="round" stroke-linejoin="round"/>
<path d="M14.1523 7.92332V13.7387C14.1523 13.8333 14.1337 13.927 14.0975 14.0144C14.0612 14.1018 14.0082 14.1812 13.9413 14.2481L11.0284 17.161C10.9362 17.2532 10.8207 17.3187 10.6942 17.3504C10.5677 17.3821 10.435 17.3789 10.3101 17.3411C10.1853 17.3033 10.0731 17.2323 9.98546 17.1358C9.8978 17.0392 9.838 16.9207 9.81242 16.7928L9.05749 13.0181" stroke="#8C8888" stroke-width="1.2" stroke-linecap="round" stroke-linejoin="round"/>
<path d="M10.0767 3.84758L4.26138 3.84758C4.16676 3.84758 4.07307 3.86622 3.98565 3.90243C3.89823 3.93863 3.8188 3.99171 3.7519 4.05861L0.839054 6.97146C0.746838 7.06367 0.681379 7.17919 0.649659 7.30569C0.617938 7.43218 0.621144 7.56492 0.658936 7.68973C0.696728 7.81455 0.767687 7.92677 0.864248 8.01443C0.960809 8.10208 1.07935 8.16189 1.20723 8.18746L4.98189 8.9424" stroke="#8C8888" stroke-width="1.2" stroke-linecap="round" stroke-linejoin="round"/>
</svg>
