<svg width="96" height="12" viewBox="0 0 96 12" fill="none" xmlns="http://www.w3.org/2000/svg">
<path d="M5.36039 0.412974L3.90165 3.52896L0.602631 4.02096C0.0191321 4.11468 -0.205291 4.86439 0.221113 5.30953L2.57755 7.72267L2.01649 11.1198C1.92673 11.7289 2.55511 12.1975 3.07128 11.9164L6.01122 10.2998L8.92872 11.9164C9.44489 12.1975 10.0733 11.7289 9.98351 11.1198L9.42245 7.72267L11.7789 5.30953C12.2053 4.86439 11.9809 4.11468 11.3974 4.02096L8.1208 3.52896L6.63961 0.412974C6.39274 -0.125881 5.6297 -0.14931 5.36039 0.412974Z" fill="#438FFE"/>
<path d="M26.3604 0.412974L24.9016 3.52896L21.6026 4.02096C21.0191 4.11468 20.7947 4.86439 21.2211 5.30953L23.5776 7.72267L23.0165 11.1198C22.9267 11.7289 23.5551 12.1975 24.0713 11.9164L27.0112 10.2998L29.9287 11.9164C30.4449 12.1975 31.0733 11.7289 30.9835 11.1198L30.4224 7.72267L32.7789 5.30953C33.2053 4.86439 32.9809 4.11468 32.3974 4.02096L29.1208 3.52896L27.6396 0.412974C27.3927 -0.125881 26.6297 -0.14931 26.3604 0.412974Z" fill="#438FFE"/>
<path d="M47.3604 0.412974L45.9016 3.52896L42.6026 4.02096C42.0191 4.11468 41.7947 4.86439 42.2211 5.30953L44.5776 7.72267L44.0165 11.1198C43.9267 11.7289 44.5551 12.1975 45.0713 11.9164L48.0112 10.2998L50.9287 11.9164C51.4449 12.1975 52.0733 11.7289 51.9835 11.1198L51.4224 7.72267L53.7789 5.30953C54.2053 4.86439 53.9809 4.11468 53.3974 4.02096L50.1208 3.52896L48.6396 0.412974C48.3927 -0.125881 47.6297 -0.14931 47.3604 0.412974Z" fill="#438FFE"/>
<path d="M68.3604 0.412974L66.9016 3.52896L63.6026 4.02096C63.0191 4.11468 62.7947 4.86439 63.2211 5.30953L65.5776 7.72267L65.0165 11.1198C64.9267 11.7289 65.5551 12.1975 66.0713 11.9164L69.0112 10.2998L71.9287 11.9164C72.4449 12.1975 73.0733 11.7289 72.9835 11.1198L72.4224 7.72267L74.7789 5.30953C75.2053 4.86439 74.9809 4.11468 74.3974 4.02096L71.1208 3.52896L69.6396 0.412974C69.3927 -0.125881 68.6297 -0.14931 68.3604 0.412974Z" fill="#438FFE"/>
<path d="M87.9754 4.0235L88.2407 3.98392L88.3545 3.74096L89.8121 0.627445C89.8968 0.453173 90.113 0.463985 90.185 0.621224L90.185 0.621245L90.188 0.627632L91.6692 3.74362L91.7834 3.98391L92.0465 4.02342L95.3199 4.51493C95.3963 4.52787 95.4593 4.58079 95.4876 4.67594C95.5162 4.77239 95.4969 4.88013 95.4191 4.96232L93.0647 7.37334L92.8879 7.55442L92.9291 7.80414L93.4893 11.196C93.5039 11.3031 93.4585 11.3955 93.3829 11.4523C93.3077 11.5088 93.232 11.5117 93.169 11.4779C93.1686 11.4777 93.1682 11.4775 93.1679 11.4773L90.2536 9.86245L90.0121 9.72869L89.7703 9.86167L86.8321 11.4773C86.8319 11.4774 86.8317 11.4775 86.8315 11.4776C86.7683 11.5117 86.6925 11.5089 86.6171 11.4523C86.5415 11.3955 86.4961 11.3031 86.5107 11.196L87.0709 7.80414L87.1121 7.55442L86.9353 7.37334L84.5809 4.96231C84.5031 4.88012 84.4838 4.77238 84.5124 4.67594C84.5407 4.58086 84.6036 4.52795 84.68 4.51496L87.9754 4.0235Z" stroke="#8C8888"/>
</svg>
