<svg width="16" height="16" viewBox="0 0 16 16" fill="none" xmlns="http://www.w3.org/2000/svg">
<path d="M8 3.09677C6.29032 3.09677 4.90323 4.48387 4.90323 6.19355C4.90323 7.90323 6.29032 9.29032 8 9.29032C9.70968 9.29032 11.0968 7.90323 11.0968 6.19355C11.0968 4.48387 9.70968 3.09677 8 3.09677ZM8 7.74194C7.14516 7.74194 6.45161 7.04839 6.45161 6.19355C6.45161 5.33871 7.14516 4.64516 8 4.64516C8.85484 4.64516 9.54839 5.33871 9.54839 6.19355C9.54839 7.04839 8.85484 7.74194 8 7.74194ZM8 0C3.58065 0 0 3.58065 0 8C0 12.4194 3.58065 16 8 16C12.4194 16 16 12.4194 16 8C16 3.58065 12.4194 0 8 0ZM8 14.4516C6.39677 14.4516 4.93226 13.8613 3.80323 12.8903C4.28387 12.1484 5.10645 11.6452 6.04839 11.6161C6.71935 11.8226 7.35806 11.9258 8 11.9258C8.64194 11.9258 9.28064 11.8258 9.95161 11.6161C10.8935 11.6484 11.7161 12.1484 12.1968 12.8903C11.0677 13.8613 9.60323 14.4516 8 14.4516ZM13.2484 11.7387C12.4613 10.7258 11.2452 10.0645 9.85806 10.0645C9.52903 10.0645 9.01935 10.3742 8 10.3742C6.98387 10.3742 6.47097 10.0645 6.14193 10.0645C4.75806 10.0645 3.54194 10.7258 2.75161 11.7387C1.99677 10.6839 1.54839 9.39355 1.54839 8C1.54839 4.44194 4.44194 1.54839 8 1.54839C11.5581 1.54839 14.4516 4.44194 14.4516 8C14.4516 9.39355 14.0032 10.6839 13.2484 11.7387Z" fill="#8C8888"/>
</svg>
