<svg width="16" height="16" viewBox="0 0 16 16" fill="none" xmlns="http://www.w3.org/2000/svg">
<path d="M8 3C6.29032 3 4.90323 4.34375 4.90323 6C4.90323 7.65625 6.29032 9 8 9C9.70968 9 11.0968 7.65625 11.0968 6C11.0968 4.34375 9.70968 3 8 3ZM8 7.5C7.14516 7.5 6.45161 6.82812 6.45161 6C6.45161 5.17188 7.14516 4.5 8 4.5C8.85484 4.5 9.54839 5.17188 9.54839 6C9.54839 6.82812 8.85484 7.5 8 7.5ZM8 0C3.58065 0 0 3.46875 0 7.75C0 12.0312 3.58065 15.5 8 15.5C12.4194 15.5 16 12.0312 16 7.75C16 3.46875 12.4194 0 8 0ZM8 14C6.39677 14 4.93226 13.4281 3.80323 12.4875C4.28387 11.7688 5.10645 11.2812 6.04839 11.2531C6.71935 11.4531 7.35806 11.5531 8 11.5531C8.64194 11.5531 9.28065 11.4563 9.95161 11.2531C10.8935 11.2844 11.7161 11.7688 12.1968 12.4875C11.0677 13.4281 9.60323 14 8 14ZM13.2484 11.3719C12.4613 10.3906 11.2452 9.75 9.85806 9.75C9.52903 9.75 9.01935 10.05 8 10.05C6.98387 10.05 6.47097 9.75 6.14193 9.75C4.75806 9.75 3.54194 10.3906 2.75161 11.3719C1.99677 10.35 1.54839 9.1 1.54839 7.75C1.54839 4.30312 4.44194 1.5 8 1.5C11.5581 1.5 14.4516 4.30312 14.4516 7.75C14.4516 9.1 14.0032 10.35 13.2484 11.3719Z" fill="#438FFE"/>
</svg>
